<svg xmlns="http://www.w3.org/2000/svg" fill="none" viewBox="0 0 128 128">
    <path d="M50.4 78.5a75.1 75.1 0 0 0-28.5 6.9l24.2-65.7c.7-2 1.9-3.2 3.4-3.2h29c1.5 0 2.7 1.2 3.4 3.2l24.2 65.7s-11.6-7-28.5-7L67 45.5c-.4-1.7-1.6-2.8-2.9-2.8-1.3 0-2.5 1.1-2.9 2.7L50.4 78.5Zm-1.1 28.2Zm-4.2-20.2c-2 6.6-.6 15.8 4.2 20.2a17.5 17.5 0 0 1 .2-.7 5.5 5.5 0 0 1 5.7-4.5c2.8.1 4.3 1.5 4.7 4.7.2 1.1.2 2.3.2 3.5v.4c0 2.7.7 5.2 2.2 7.4a13 13 0 0 0 5.7 4.9v-.3l-.2-.3c-1.8-5.6-.5-9.5 4.4-12.8l1.5-1a73 73 0 0 0 3.2-2.2 16 16 0 0 0 6.8-11.4c.3-2 .1-4-.6-6l-.8.6-12.6 11c-.7.5-1.3.7-2 .4-.6-.3-1-1-1.2-1.6a368.8 368.8 0 0 1-3.9-10.9 47.2 47.2 0 0 1-2.1-9.1c-.1-.4 0-.8.2-1.2l5.4-16.3 6.9 19.3c.1.3.2.7.2 1.1-.1 1.6-.3 3.3-.5 4.9a48 48 0 0 0-.1 7.7c.1.9.7 1.7 1.6 1.9.9.2 1.8-.2 2.4-1 2.8-4.9 5.8-9.8 8.9-14.6l5.1 3.5c.4.4.8.7 1.3.9 1.5.6 3.3.3 4.4-.9l.6-.6c.7-.8.9-1.9.5-2.9-.4-1-.9-2-1.5-2.9-.5-.8-.8-1.6-.8-2.5.2-3.3 1.6-6.3 4-8.5l-1.4-.8a72.8 72.8 0 0 0-10.4-4.9 73.2 73.2 0 0 0-31.1-5.2c-19.4.8-36.5 9.6-48.8 23.8l2.3.5c3.6 1 6 4.4 5.6 8-.3 2.7-1.8 5.1-4 6.6l-.5.4Z"/>
</svg>
